# xmcd
#
# Track frame offsets:
#       183
#       24148
#       46678
#       60860
#       75425
#       92375
#       112283
#       129605
#       152245
#       167215
#       187455
#       213255
#       238175
#
# Disc length: 3449 seconds
#
# Revision: 1
# Processed by: cddbd v1.4PL0 Copyright (c) Steve Scherf et al.
# Submitted via: MusiCat 1.1
#
DISCID=a50d770d
DTITLE=The Fabulous Thunderbirds - The Crawl, Recorded Live at Auditorium Shor
DTITLE=es, Austin TX 1987
DYEAR=1991
DGENRE=
TTITLE0=Hot Number
TTITLE1=Why get up
TTITLE2=Fine Fine Fine
TTITLE3=Wrap it up
TTITLE4=Stand Back
TTITLE5=Streets of Gold
TTITLE6=Sofa Circuit
TTITLE7=Look at that, Look at that
TTITLE8=How do you spell love
TTITLE9=Tuff Enuff
TTITLE10=The Crawl
TTITLE11=Man Sized Job (with B.Raitt)
TTITLE12=I Hear you knockin' (with Dave Edmunds and Nick Lowe)
EXTD=1991\n\n\nsubmitted by Stamppot
EXTT0=
EXTT1=
EXTT2=
EXTT3=
EXTT4=
EXTT5=
EXTT6=
EXTT7=
EXTT8=
EXTT9=
EXTT10=
EXTT11=
EXTT12=
PLAYORDER=
